<svg width="18" height="18" viewBox="0 0 18 18" fill="none" xmlns="http://www.w3.org/2000/svg">
<rect x="5" y="5" width="9" height="8" fill="#181818"/>
<path d="M17.25 9L15.42 6.9075L15.675 4.14L12.9675 3.525L11.55 1.125L9 2.22L6.45 1.125L5.0325 3.5175L2.325 4.125L2.58 6.9L0.75 9L2.58 11.0925L2.325 13.8675L5.0325 14.4825L6.45 16.875L9 15.7725L11.55 16.8675L12.9675 14.475L15.675 13.86L15.42 11.0925L17.25 9ZM7.035 12.0075L5.25 10.2075C5.18047 10.1381 5.12531 10.0557 5.08768 9.96497C5.05004 9.87424 5.03067 9.77698 5.03067 9.67875C5.03067 9.58052 5.05004 9.48326 5.08768 9.39253C5.12531 9.3018 5.18047 9.21939 5.25 9.15L5.3025 9.0975C5.595 8.805 6.075 8.805 6.3675 9.0975L7.575 10.3125L11.4375 6.4425C11.73 6.15 12.21 6.15 12.5025 6.4425L12.555 6.495C12.8475 6.7875 12.8475 7.26 12.555 7.5525L8.115 12.0075C7.8075 12.3 7.335 12.3 7.035 12.0075Z" fill="#0095F6"/>
</svg>